<svg height="300" width="450" xmlns="http://www.w3.org/2000/svg"><path d="m132 106h46v18h-46z" fill="none" stroke="#000" stroke-linecap="square" stroke-linejoin="round"/><path d="m132 122h7v2h-7z" stroke="#000"/><path d="m132 106h7v2h-7z" stroke="#000"/><path d="m171 106h7v2h-7z" stroke="#000"/><text font-family="DejaVu Sans Mono" font-size="11" stroke-width="0" x="134" y="119">spigot</text><path d="m132 129h39v18h-39z" fill="none" stroke="#000" stroke-linecap="square" stroke-linejoin="round"/><path d="m132 129h7v2h-7z" stroke="#000"/><text font-family="DejaVu Sans Mono" font-size="11" stroke-width="0" x="134" y="142">print</text><g stroke="#000"><path d="m135 124v5" fill="none" stroke-linejoin="round"/><path d="m123 73h15v15h-15z" fill="#fcfcfc"/><path d="m123 87h7v1h-7z"/><path d="m123 73h7v1h-7z"/><ellipse cx="130.5" cy="80.5" fill="#fcfcfc" rx="6.5" ry="6.5"/></g><text x="140" y="83.5"/><path d="m126 88 9 18" fill="none" stroke="#000" stroke-linejoin="round"/></svg>